<svg width="60" height="60" viewBox="0 0 60 60" fill="none" xmlns="http://www.w3.org/2000/svg">
<circle cx="30" cy="30" r="30" fill="#5CC333"/>
<path d="M13.9721 16.533L14.0283 16.4979L21.1284 13L28.7918 23.2179L25.2661 27.9192C25.3716 29.6921 26.1235 31.3649 27.3794 32.6208C28.6353 33.8767 30.308 34.6285 32.081 34.734L36.7822 31.2083L47 38.8715L43.5312 45.9123L43.502 45.9717L43.4668 46.0278C43.2817 46.3261 43.0233 46.572 42.7163 46.7422C42.4092 46.9123 42.0637 47.0011 41.7127 47H39.8806C36.3506 47 32.8551 46.3047 29.5938 44.9538C26.3325 43.6029 23.3692 41.6229 20.8731 39.1268C18.377 36.6307 16.397 33.6674 15.0462 30.4061C13.6953 27.1448 13 23.6493 13 20.1193V18.2871C12.9989 17.9361 13.0876 17.5906 13.2578 17.2836C13.428 16.9765 13.6739 16.7182 13.9721 16.533ZM15.6238 20.1193C15.6238 33.4946 26.5054 44.3762 39.8806 44.3762H41.3631L43.684 39.6646L36.7817 34.4879L32.9389 37.3699H32.5016C29.8843 37.3669 27.375 36.3259 25.5243 34.4752C23.6735 32.6244 22.6325 30.1151 22.6296 27.4978V27.0605L25.5116 23.2178L20.3354 16.3159L15.6238 18.6373V20.1193Z" fill="white"/>
</svg>
