<svg width="116" height="116" viewBox="0 0 116 116" fill="none" xmlns="http://www.w3.org/2000/svg">
<circle cx="58" cy="58" r="48" fill="white"/>
<path d="M58 92.8C45.9167 92.8 35.235 86.6134 29 77.3334C29.145 67.6667 48.3333 62.35 58 62.35C67.6667 62.35 86.855 67.6667 87 77.3334C83.8046 82.0913 79.4883 85.9906 74.4312 88.6877C69.3741 91.3848 63.7314 92.7971 58 92.8ZM58 24.1667C61.8456 24.1667 65.5338 25.6944 68.253 28.4136C70.9723 31.1329 72.5 34.821 72.5 38.6667C72.5 42.5123 70.9723 46.2005 68.253 48.9197C65.5338 51.639 61.8456 53.1667 58 53.1667C54.1544 53.1667 50.4662 51.639 47.7469 48.9197C45.0277 46.2005 43.5 42.5123 43.5 38.6667C43.5 34.821 45.0277 31.1329 47.7469 28.4136C50.4662 25.6944 54.1544 24.1667 58 24.1667ZM58 9.66669C51.6528 9.66669 45.3677 10.9169 39.5036 13.3458C33.6396 15.7748 28.3113 19.335 23.8232 23.8232C14.7589 32.8875 9.66666 45.1812 9.66666 58C9.66666 70.8188 14.7589 83.1126 23.8232 92.1768C28.3113 96.665 33.6396 100.225 39.5036 102.654C45.3677 105.083 51.6528 106.333 58 106.333C70.8188 106.333 83.1126 101.241 92.1768 92.1768C101.241 83.1126 106.333 70.8188 106.333 58C106.333 31.2717 84.5833 9.66669 58 9.66669Z" fill="#646567"/>
</svg>
