<svg width="79" height="79" viewBox="0 0 79 79" fill="none" xmlns="http://www.w3.org/2000/svg">
<path fill-rule="evenodd" clip-rule="evenodd" d="M39.7534 8.43657C39.5886 8.38323 39.4113 8.38323 39.2465 8.43657L12.0902 17.2484C11.9249 17.3013 11.7807 17.4054 11.6784 17.5456C11.5761 17.6858 11.5209 17.8549 11.5208 18.0285V34.5625C11.5208 52.5383 22.3174 65.7774 39.2695 72.1731C39.4181 72.2286 39.5818 72.2286 39.7304 72.1731C56.6824 65.7774 67.4791 52.5383 67.4791 34.5625V18.0252C67.4785 17.8517 67.4231 17.6829 67.3209 17.5428C67.2186 17.4027 67.0747 17.2985 66.9097 17.2451L39.7534 8.43657ZM37.7224 3.74265C38.8778 3.36785 40.1221 3.36785 41.2774 3.74265L68.4337 12.5479C69.5909 12.9233 70.5996 13.6554 71.3151 14.6394C72.0306 15.6234 72.4162 16.8086 72.4166 18.0252V34.5625C72.4166 54.9379 60.007 69.7998 41.4717 76.7946C40.2008 77.2734 38.7991 77.2734 37.5282 76.7946C18.9962 69.7965 6.58328 54.9379 6.58328 34.5625V18.0252C6.58328 15.5235 8.1962 13.3181 10.5662 12.5479L37.7224 3.74265ZM42.7916 40.2637C44.0466 39.539 45.0274 38.4206 45.5819 37.0817C46.1365 35.7428 46.2337 34.2584 45.8587 32.8586C45.4836 31.4588 44.6571 30.2219 43.5074 29.3397C42.3578 28.4575 40.9491 27.9793 39.4999 27.9792C38.0508 27.9793 36.6421 28.4575 35.4925 29.3397C34.3428 30.2219 33.5163 31.4588 33.1412 32.8586C32.7662 34.2584 32.8634 35.7428 33.418 37.0817C33.9725 38.4206 34.9533 39.539 36.2083 40.2637V49.375C36.2083 50.248 36.5551 51.0853 37.1724 51.7026C37.7897 52.3199 38.6269 52.6667 39.4999 52.6667C40.373 52.6667 41.2102 52.3199 41.8275 51.7026C42.4448 51.0853 42.7916 50.248 42.7916 49.375V40.2637Z" fill="white"/>
</svg>
